# xmcd CD database file
#
# Track frame offsets:
#	150
#	20004
#	39192
#	57581
#	75993
#	91244
#	108921
#	130167
#	149080
#	165702
#	185050
#	205204
#	224997
#	239192
#	255106
#	273234
#	291046
#	303121
#
# Disc length: 4326 seconds
#
# Revision: 0
# Processed by: cddbd v1.4PL0 Copyright (c) Steve Scherf et al.
# Submitted via: CDex 1.50Beta7
#
DISCID=0a10e412
DTITLE=Merengues Nuevos 100% - Vol 1
DYEAR=2000
DGENRE=Merengue
TTITLE0=Manikkomio-Te la saca
TTITLE1=Mambo Nuevo-Gozadera
TTITLE2=Manole-Se Menea
TTITLE3=Tulile-Cuca
TTITLE4=Freddy Gerardo-El Pichirri
TTITLE5=La Patrulla 15-El Muelto se Paro
TTITLE6=Raphy Matias-Yo no soy facil
TTITLE7=Fernando Villalona-Que viva el merengue
TTITLE8=QJ20/20-Mi libertad
TTITLE9=Mateos-Tu magia
TTITLE10=Burende-Como quisiera
TTITLE11=Tony"Tun Tun"-Fiebre
TTITLE12=Proyecto Nuevo-Mentiras
TTITLE13=Luesa-Me enamoras
TTITLE14=Ashly-Si tu boquita fuera
TTITLE15=Grupo Jubiles-La cacata
TTITLE16=Robert Vargas-El baile del pato
TTITLE17=Elvis Crespo-"A que no te atreves"
EXTD=YEAR: 2000
EXTT0=
EXTT1=
EXTT2=
EXTT3=
EXTT4=
EXTT5=
EXTT6=
EXTT7=
EXTT8=
EXTT9=
EXTT10=
EXTT11=
EXTT12=
EXTT13=
EXTT14=
EXTT15=
EXTT16=
EXTT17=
PLAYORDER=
